<svg width="730" height="444" viewBox="0 0 730 444" fill="none" xmlns="http://www.w3.org/2000/svg">
<g clip-path="url(#clip0_677_5356)">
<g filter="url(#filter0_b_677_5356)">
<circle cx="365.033" cy="365.114" r="364.277" fill="#094BC4" fill-opacity="0.09"/>
<circle cx="365.033" cy="365.114" r="364.277" fill="url(#paint0_radial_677_5356)"/>
<circle cx="365.033" cy="365.114" r="363.81" stroke="#D3DFFF" stroke-opacity="0.6" stroke-width="0.935057" stroke-dasharray="13.32 13.32"/>
</g>
<g filter="url(#filter1_b_677_5356)">
<ellipse cx="364.338" cy="365.113" rx="273.381" ry="272.687" fill="#094BC4" fill-opacity="0.09"/>
<ellipse cx="364.338" cy="365.113" rx="273.381" ry="272.687" fill="url(#paint1_radial_677_5356)"/>
<path d="M636.988 345.007C637.312 349.44 637.529 353.903 637.638 358.392L637.171 358.404C637.225 360.634 637.252 362.87 637.252 365.113C637.252 367.357 637.225 369.593 637.171 371.824L637.638 371.835C637.529 376.324 637.312 380.787 636.988 385.22L636.521 385.186C636.195 389.655 635.76 394.094 635.22 398.5L635.684 398.557C635.138 403.01 634.485 407.43 633.726 411.814L633.265 411.735C632.502 416.146 631.632 420.521 630.659 424.856L631.115 424.959C630.133 429.333 629.046 433.667 627.857 437.958L627.406 437.833C626.211 442.144 624.912 446.411 623.513 450.633L623.957 450.78C622.548 455.031 621.036 459.237 619.426 463.393L618.99 463.224C617.375 467.391 615.66 471.509 613.848 475.575L614.275 475.765C612.453 479.854 610.534 483.889 608.519 487.868L608.102 487.657C606.084 491.642 603.971 495.571 601.766 499.441L602.172 499.672C599.957 503.559 597.65 507.386 595.252 511.15L594.858 510.899C592.459 514.664 589.971 518.366 587.395 522.003L587.776 522.273C585.192 525.922 582.521 529.504 579.765 533.017L579.397 532.729C576.643 536.24 573.804 539.681 570.884 543.051L571.237 543.357C568.311 546.734 565.302 550.039 562.215 553.268L561.877 552.945C558.795 556.169 555.635 559.317 552.398 562.387L552.72 562.727C549.48 565.801 546.164 568.797 542.775 571.711L542.471 571.357C539.091 574.264 535.638 577.09 532.117 579.831L532.404 580.2C528.881 582.943 525.289 585.601 521.631 588.172L521.362 587.79C517.717 590.352 514.005 592.828 510.231 595.214L510.481 595.609C506.709 597.993 502.875 600.288 498.981 602.49L498.75 602.083C494.874 604.276 490.938 606.376 486.946 608.382L487.156 608.8C483.171 610.802 479.13 612.71 475.036 614.52L474.847 614.093C470.777 615.893 466.654 617.597 462.482 619.201L462.65 619.637C458.49 621.237 454.281 622.738 450.026 624.138L449.88 623.694C445.655 625.083 441.385 626.373 437.072 627.56L437.196 628.01C432.902 629.192 428.566 630.271 424.191 631.246L424.089 630.789C419.752 631.756 415.376 632.619 410.963 633.377L411.043 633.837C406.658 634.59 402.237 635.239 397.783 635.781L397.727 635.317C393.32 635.853 388.88 636.284 384.411 636.608L384.445 637.075C380.012 637.396 375.549 637.612 371.06 637.72L371.048 637.253C368.818 637.306 366.581 637.333 364.338 637.333C362.095 637.333 359.858 637.306 357.628 637.253L357.617 637.72C353.128 637.612 348.665 637.396 344.232 637.075L344.266 636.608C339.796 636.284 335.357 635.853 330.95 635.317L330.893 635.781C326.44 635.239 322.019 634.59 317.634 633.837L317.713 633.377C313.301 632.619 308.925 631.756 304.587 630.789L304.486 631.246C300.11 630.271 295.774 629.192 291.481 628.01L291.605 627.56C287.292 626.373 283.021 625.083 278.797 623.694L278.651 624.138C274.396 622.738 270.187 621.237 266.027 619.637L266.195 619.201C262.023 617.596 257.9 615.893 253.829 614.093L253.64 614.52C249.546 612.71 245.505 610.802 241.52 608.8L241.73 608.382C237.738 606.376 233.803 604.276 229.926 602.083L229.696 602.49C225.802 600.288 221.967 597.993 218.196 595.609L218.445 595.214C214.671 592.828 210.96 590.352 207.314 587.79L207.046 588.172C203.387 585.601 199.795 582.943 196.272 580.2L196.56 579.831C193.038 577.09 189.586 574.264 186.206 571.357L185.901 571.711C182.513 568.797 179.197 565.801 175.956 562.727L176.278 562.387C173.042 559.317 169.882 556.169 166.799 552.945L166.462 553.268C163.374 550.039 160.366 546.734 157.439 543.357L157.793 543.051C154.873 539.681 152.034 536.24 149.28 532.729L148.912 533.017C146.156 529.504 143.484 525.922 140.9 522.273L141.282 522.003C138.706 518.366 136.217 514.664 133.819 510.899L133.425 511.15C131.027 507.386 128.719 503.559 126.504 499.672L126.911 499.441C124.705 495.571 122.592 491.642 120.575 487.657L120.158 487.868C118.143 483.889 116.223 479.854 114.401 475.765L114.828 475.575C113.017 471.509 111.302 467.391 109.687 463.224L109.251 463.393C107.64 459.237 106.129 455.031 104.72 450.78L105.164 450.633C103.764 446.411 102.466 442.144 101.271 437.833L100.82 437.958C99.6304 433.667 98.5432 429.332 97.5614 424.959L98.0176 424.856C97.0442 420.521 96.1746 416.146 95.4113 411.735L94.9507 411.814C94.1921 407.43 93.5385 403.01 92.9926 398.557L93.4566 398.5C92.9164 394.094 92.4817 389.655 92.1552 385.186L91.6889 385.22C91.365 380.787 91.1473 376.324 91.0385 371.835L91.5058 371.823C91.4518 369.593 91.4246 367.357 91.4246 365.113C91.4246 362.87 91.4518 360.634 91.5058 358.403L91.0385 358.392C91.1473 353.903 91.365 349.44 91.6889 345.007L92.1552 345.041C92.4817 340.572 92.9164 336.133 93.4566 331.727L92.9926 331.67C93.5385 327.217 94.1921 322.797 94.9507 318.413L95.4114 318.492C96.1746 314.081 97.0442 309.706 98.0176 305.371L97.5614 305.268C98.5433 300.894 99.6305 296.56 100.82 292.269L101.271 292.394C102.466 288.083 103.764 283.816 105.164 279.594L104.72 279.447C106.129 275.196 107.641 270.99 109.251 266.834L109.687 267.003C111.302 262.836 113.017 258.718 114.829 254.652L114.401 254.462C116.223 250.373 118.143 246.338 120.158 242.359L120.575 242.57C122.592 238.585 124.705 234.656 126.911 230.786L126.504 230.555C128.719 226.668 131.027 222.841 133.425 219.077L133.819 219.328C136.217 215.563 138.706 211.861 141.282 208.224L140.9 207.954C143.484 204.305 146.156 200.723 148.912 197.21L149.28 197.498C152.034 193.987 154.873 190.546 157.793 187.176L157.439 186.87C160.366 183.493 163.374 180.188 166.462 176.959L166.799 177.282C169.882 174.058 173.042 170.91 176.278 167.84L175.956 167.501C179.197 164.426 182.513 161.43 185.901 158.516L186.206 158.87C189.586 155.963 193.038 153.137 196.56 150.396L196.272 150.027C199.795 147.284 203.387 144.626 207.046 142.055L207.314 142.437C210.96 139.875 214.671 137.399 218.445 135.013L218.196 134.618C221.968 132.234 225.802 129.939 229.696 127.737L229.926 128.144C233.803 125.951 237.739 123.851 241.73 121.845L241.52 121.427C245.505 119.425 249.546 117.517 253.64 115.707L253.829 116.134C257.9 114.334 262.023 112.63 266.195 111.026L266.027 110.59C270.187 108.99 274.396 107.489 278.651 106.089L278.797 106.533C283.021 105.144 287.292 103.854 291.605 102.667L291.481 102.217C295.774 101.035 300.11 99.956 304.486 98.9813L304.588 99.4376C308.925 98.4713 313.301 97.6081 317.713 96.8505L317.634 96.3897C322.019 95.6368 326.44 94.9881 330.894 94.4462L330.95 94.9103C335.357 94.3741 339.796 93.9427 344.266 93.6186L344.232 93.1523C348.665 92.8309 353.128 92.6149 357.617 92.5068L357.628 92.9742C359.858 92.9205 362.095 92.8936 364.338 92.8936C366.582 92.8936 368.818 92.9205 371.049 92.9742L371.06 92.5068C375.549 92.6149 380.012 92.8309 384.445 93.1523L384.411 93.6186C388.88 93.9427 393.32 94.3741 397.727 94.9103L397.783 94.4462C402.237 94.9881 406.658 95.6368 411.043 96.3897L410.963 96.8505C415.376 97.6081 419.752 98.4714 424.089 99.4376L424.191 98.9813C428.566 99.9561 432.902 101.035 437.196 102.217L437.072 102.667C441.385 103.854 445.655 105.144 449.88 106.533L450.026 106.089C454.281 107.489 458.49 108.99 462.65 110.59L462.482 111.026C466.654 112.63 470.777 114.334 474.847 116.134L475.036 115.707C479.13 117.517 483.171 119.425 487.156 121.427L486.946 121.845C490.938 123.851 494.874 125.951 498.75 128.144L498.981 127.737C502.875 129.939 506.709 132.234 510.481 134.618L510.231 135.013C514.005 137.399 517.717 139.875 521.362 142.437L521.631 142.055C525.289 144.626 528.881 147.284 532.404 150.027L532.117 150.396C535.638 153.137 539.091 155.963 542.471 158.87L542.776 158.516C546.164 161.43 549.48 164.426 552.72 167.501L552.399 167.84C555.635 170.91 558.795 174.058 561.877 177.282L562.215 176.959C565.302 180.188 568.311 183.493 571.237 186.87L570.884 187.176C573.804 190.546 576.643 193.987 579.397 197.498L579.765 197.21C582.521 200.723 585.192 204.305 587.776 207.954L587.395 208.224C589.971 211.861 592.459 215.563 594.858 219.328L595.252 219.077C597.65 222.841 599.957 226.668 602.172 230.555L601.766 230.786C603.971 234.656 606.084 238.585 608.102 242.57L608.519 242.359C610.534 246.338 612.453 250.373 614.275 254.462L613.848 254.652C615.66 258.718 617.375 262.836 618.99 267.003L619.426 266.834C621.036 270.99 622.548 275.196 623.957 279.447L623.513 279.594C624.912 283.816 626.211 288.083 627.406 292.394L627.857 292.269C629.046 296.561 630.133 300.895 631.115 305.268L630.659 305.371C631.633 309.706 632.502 314.081 633.265 318.492L633.726 318.413C634.485 322.797 635.138 327.217 635.684 331.67L635.22 331.727C635.76 336.133 636.195 340.572 636.522 345.041L636.988 345.007Z" stroke="url(#paint2_linear_677_5356)" stroke-width="0.935057" stroke-dasharray="13.32 13.32"/>
</g>
<g filter="url(#filter2_b_677_5356)">
<ellipse cx="364.339" cy="365.113" rx="181.792" ry="182.486" fill="#094BC4" fill-opacity="0.09"/>
<ellipse cx="364.339" cy="365.113" rx="181.792" ry="182.486" fill="url(#paint3_radial_677_5356)"/>
<path d="M545.107 345.636C545.559 349.915 545.864 354.238 546.017 358.6L545.549 358.617C545.625 360.773 545.663 362.939 545.663 365.113C545.663 367.288 545.625 369.454 545.549 371.61L546.017 371.627C545.864 375.989 545.559 380.312 545.107 384.591L544.642 384.542C544.184 388.872 543.575 393.156 542.821 397.39L543.281 397.472C542.516 401.761 541.603 405.997 540.545 410.177L540.092 410.062C539.026 414.275 537.814 418.428 536.461 422.518L536.905 422.665C535.538 426.795 534.029 430.86 532.382 434.854L531.95 434.675C530.297 438.685 528.505 442.623 526.58 446.482L526.999 446.691C525.06 450.579 522.986 454.389 520.785 458.112L520.382 457.875C518.178 461.603 515.844 465.246 513.388 468.797L513.773 469.063C511.304 472.633 508.711 476.11 506.001 479.488L505.636 479.196C502.928 482.571 500.103 485.847 497.166 489.018L497.509 489.336C494.563 492.517 491.505 495.593 488.341 498.556L488.021 498.215C484.866 501.171 481.606 504.015 478.247 506.74L478.541 507.103C475.178 509.833 471.715 512.445 468.159 514.932L467.891 514.549C464.352 517.025 460.722 519.377 457.005 521.6L457.245 522.001C453.531 524.222 449.732 526.313 445.854 528.27L445.643 527.852C441.792 529.795 437.862 531.604 433.859 533.273L434.039 533.705C430.052 535.368 425.993 536.892 421.868 538.273L421.72 537.829C417.634 539.196 413.484 540.421 409.275 541.499L409.391 541.952C405.214 543.021 400.98 543.944 396.693 544.717L396.61 544.257C392.378 545.02 388.094 545.636 383.766 546.099L383.815 546.564C379.537 547.021 375.214 547.33 370.852 547.484L370.835 547.017C368.679 547.093 366.513 547.131 364.339 547.131C362.164 547.131 359.998 547.093 357.842 547.017L357.826 547.484C353.463 547.33 349.14 547.021 344.862 546.564L344.911 546.099C340.583 545.636 336.3 545.02 332.067 544.257L331.984 544.717C327.698 543.944 323.463 543.021 319.286 541.952L319.402 541.499C315.193 540.421 311.043 539.196 306.958 537.829L306.809 538.273C302.684 536.892 298.625 535.368 294.638 533.705L294.818 533.273C290.815 531.604 286.886 529.795 283.034 527.852L282.824 528.27C278.945 526.313 275.146 524.222 271.432 522.001L271.672 521.6C267.956 519.377 264.325 517.025 260.786 514.549L260.518 514.932C256.962 512.445 253.5 509.833 250.136 507.104L250.43 506.74C247.071 504.015 243.811 501.171 240.656 498.215L240.336 498.556C237.172 495.593 234.114 492.517 231.168 489.336L231.511 489.018C228.574 485.847 225.749 482.571 223.041 479.196L222.676 479.488C219.966 476.11 217.373 472.633 214.904 469.063L215.289 468.797C212.833 465.246 210.499 461.603 208.295 457.874L207.892 458.112C205.691 454.389 203.618 450.579 201.678 446.691L202.097 446.482C200.172 442.623 198.38 438.685 196.727 434.675L196.295 434.853C194.648 430.86 193.139 426.795 191.772 422.665L192.216 422.518C190.863 418.428 189.651 414.275 188.585 410.062L188.132 410.177C187.074 405.997 186.161 401.76 185.396 397.472L185.856 397.39C185.102 393.156 184.493 388.871 184.035 384.542L183.57 384.591C183.118 380.312 182.813 375.989 182.661 371.627L183.128 371.61C183.052 369.454 183.014 367.288 183.014 365.113C183.014 362.939 183.052 360.773 183.128 358.617L182.661 358.6C182.813 354.238 183.118 349.915 183.57 345.636L184.035 345.685C184.493 341.355 185.102 337.071 185.856 332.837L185.396 332.755C186.161 328.466 187.074 324.229 188.132 320.05L188.585 320.165C189.651 315.952 190.863 311.798 192.216 307.709L191.772 307.562C193.139 303.432 194.648 299.367 196.295 295.373L196.727 295.552C198.38 291.542 200.172 287.604 202.097 283.745L201.678 283.536C203.618 279.648 205.691 275.838 207.893 272.114L208.295 272.352C210.499 268.624 212.833 264.981 215.289 261.43L214.904 261.164C217.373 257.594 219.966 254.117 222.676 250.739L223.041 251.031C225.749 247.656 228.574 244.38 231.511 241.209L231.168 240.891C234.114 237.71 237.172 234.634 240.336 231.67L240.656 232.012C243.811 229.056 247.071 226.212 250.43 223.486L250.136 223.123C253.5 220.394 256.962 217.782 260.518 215.295L260.786 215.678C264.325 213.202 267.956 210.85 271.672 208.627L271.432 208.226C275.146 206.005 278.945 203.914 282.823 201.957L283.034 202.375C286.885 200.432 290.815 198.623 294.818 196.954L294.638 196.522C298.625 194.859 302.684 193.335 306.809 191.954L306.957 192.398C311.043 191.031 315.193 189.806 319.402 188.728L319.286 188.275C323.463 187.206 327.698 186.282 331.984 185.509L332.067 185.97C336.299 185.206 340.583 184.591 344.911 184.128L344.862 183.663C349.14 183.206 353.463 182.897 357.826 182.743L357.842 183.21C359.998 183.134 362.164 183.095 364.339 183.095C366.513 183.095 368.679 183.134 370.835 183.21L370.851 182.743C375.214 182.897 379.537 183.206 383.815 183.663L383.766 184.128C388.094 184.591 392.377 185.206 396.61 185.97L396.693 185.509C400.979 186.282 405.214 187.206 409.391 188.275L409.275 188.728C413.484 189.806 417.634 191.031 421.719 192.398L421.868 191.954C425.993 193.335 430.052 194.859 434.039 196.522L433.859 196.954C437.862 198.623 441.792 200.432 445.643 202.375L445.854 201.957C449.732 203.914 453.531 206.005 457.245 208.226L457.005 208.627C460.722 210.85 464.352 213.202 467.891 215.678L468.159 215.295C471.715 217.782 475.177 220.394 478.541 223.123L478.247 223.486C481.606 226.212 484.866 229.056 488.021 232.012L488.341 231.67C491.505 234.634 494.563 237.71 497.509 240.891L497.166 241.209C500.103 244.38 502.928 247.656 505.636 251.031L506.001 250.739C508.711 254.117 511.304 257.594 513.773 261.164L513.388 261.43C515.844 264.981 518.178 268.624 520.382 272.352L520.785 272.114C522.986 275.838 525.06 279.648 526.999 283.536L526.58 283.745C528.505 287.604 530.297 291.542 531.95 295.552L532.382 295.373C534.029 299.367 535.538 303.432 536.905 307.562L536.461 307.709C537.814 311.798 539.026 315.952 540.092 320.165L540.545 320.05C541.603 324.229 542.516 328.466 543.281 332.755L542.821 332.837C543.575 337.071 544.184 341.355 544.642 345.685L545.107 345.636Z" stroke="url(#paint4_linear_677_5356)" stroke-width="0.935057" stroke-dasharray="13.32 13.32"/>
</g>
</g>
<defs>
<filter id="filter0_b_677_5356" x="-61.4141" y="-61.3333" width="852.894" height="852.894" filterUnits="userSpaceOnUse" color-interpolation-filters="sRGB">
<feFlood flood-opacity="0" result="BackgroundImageFix"/>
<feGaussianBlur in="BackgroundImageFix" stdDeviation="31.085"/>
<feComposite in2="SourceAlpha" operator="in" result="effect1_backgroundBlur_677_5356"/>
<feBlend mode="normal" in="SourceGraphic" in2="effect1_backgroundBlur_677_5356" result="shape"/>
</filter>
<filter id="filter1_b_677_5356" x="28.7871" y="30.2561" width="671.103" height="669.715" filterUnits="userSpaceOnUse" color-interpolation-filters="sRGB">
<feFlood flood-opacity="0" result="BackgroundImageFix"/>
<feGaussianBlur in="BackgroundImageFix" stdDeviation="31.085"/>
<feComposite in2="SourceAlpha" operator="in" result="effect1_backgroundBlur_677_5356"/>
<feBlend mode="normal" in="SourceGraphic" in2="effect1_backgroundBlur_677_5356" result="shape"/>
</filter>
<filter id="filter2_b_677_5356" x="120.377" y="120.458" width="487.923" height="489.311" filterUnits="userSpaceOnUse" color-interpolation-filters="sRGB">
<feFlood flood-opacity="0" result="BackgroundImageFix"/>
<feGaussianBlur in="BackgroundImageFix" stdDeviation="31.085"/>
<feComposite in2="SourceAlpha" operator="in" result="effect1_backgroundBlur_677_5356"/>
<feBlend mode="normal" in="SourceGraphic" in2="effect1_backgroundBlur_677_5356" result="shape"/>
</filter>
<radialGradient id="paint0_radial_677_5356" cx="0" cy="0" r="1" gradientUnits="userSpaceOnUse" gradientTransform="translate(197.466 55.4782) rotate(48.5035) scale(252.904)">
<stop stop-color="white" stop-opacity="0.13"/>
<stop offset="1" stop-color="white" stop-opacity="0"/>
</radialGradient>
<radialGradient id="paint1_radial_677_5356" cx="0" cy="0" r="1" gradientUnits="userSpaceOnUse" gradientTransform="translate(551.149 204.228) rotate(159.217) scale(199.812 199.433)">
<stop stop-color="white" stop-opacity="0.13"/>
<stop offset="1" stop-color="white" stop-opacity="0"/>
</radialGradient>
<linearGradient id="paint2_linear_677_5356" x1="476.425" y1="111.514" x2="459.192" y2="174.255" gradientUnits="userSpaceOnUse">
<stop stop-color="#D3DFFF" stop-opacity="0.5"/>
<stop offset="1" stop-color="#D3DFFF" stop-opacity="0.2"/>
</linearGradient>
<radialGradient id="paint3_radial_677_5356" cx="0" cy="0" r="1" gradientUnits="userSpaceOnUse" gradientTransform="translate(228.904 267.484) rotate(55.9968) scale(139.78 139.581)">
<stop stop-color="#D3DFFF" stop-opacity="0.13"/>
<stop offset="1" stop-color="#D3DFFF" stop-opacity="0"/>
</radialGradient>
<linearGradient id="paint4_linear_677_5356" x1="227.995" y1="251.06" x2="281.859" y2="313.815" gradientUnits="userSpaceOnUse">
<stop stop-color="#D3DFFF" stop-opacity="0.5"/>
<stop offset="1" stop-color="#D3DFFF" stop-opacity="0.2"/>
</linearGradient>
<clipPath id="clip0_677_5356">
<rect width="729.345" height="729.345" fill="white" transform="translate(0.228516 0.467773)"/>
</clipPath>
</defs>
</svg>
